<svg width="20" height="20" viewBox="0 0 20 20" fill="none" xmlns="http://www.w3.org/2000/svg">
<path fill-rule="evenodd" clip-rule="evenodd" d="M14.3013 8C14.3013 11.2787 11.5829 14 8.15066 14C4.7184 14 2 11.2787 2 8C2 4.72131 4.7184 2 8.15066 2C11.5829 2 14.3013 4.72131 14.3013 8ZM13.0907 14.3637C11.7201 15.3903 10.0079 16 8.15066 16C3.64917 16 0 12.4183 0 8C0 3.58172 3.64917 0 8.15066 0C12.6521 0 16.3013 3.58172 16.3013 8C16.3013 9.88002 15.6406 11.6086 14.5347 12.9742L19.1012 18.3528C19.4587 18.7738 19.4072 19.4049 18.9861 19.7623C18.5651 20.1198 17.9341 20.0682 17.5766 19.6472L13.0907 14.3637Z" fill="white"/>
</svg>
